<svg xmlns="http://www.w3.org/2000/svg" width="860" height="450" viewBox="0 0 860 450" role="img" aria-labelledby="title description">
  <title id="title">Mingkang Dong's Research Map</title>
  <desc id="description">Data-Centric AI connects Data Selection to VisNec (ECCV 2026) and OnceSelect. Video Understanding connects Video Anomaly Detection to Pistachio (ECCV 2026), and Streaming Video to ObjectStream. AIGC connects Trustworthy Generative AI to AutoDebias (CVPR 2026 Highlight). Embodied AI connects VLA to Evo-Depth (NeurIPS 2026).</desc>
  <defs>
    <symbol id="database" viewBox="0 0 24 24">
      <path fill="currentColor" d="M12 3C7.58 3 4 4.79 4 7v10c0 2.21 3.59 4 8 4s8-1.79 8-4V7c0-2.21-3.58-4-8-4m6 14c0 .5-2.13 2-6 2s-6-1.5-6-2v-2.23c1.61.78 3.72 1.23 6 1.23s4.39-.45 6-1.23zm0-4.55c-1.3.95-3.58 1.55-6 1.55s-4.7-.6-6-1.55V9.64c1.47.83 3.61 1.36 6 1.36s4.53-.53 6-1.36zM12 9C8.13 9 6 7.5 6 7s2.13-2 6-2s6 1.5 6 2s-2.13 2-6 2" />
    </symbol>
    <symbol id="video" viewBox="0 0 24 24">
      <path fill="currentColor" d="M19 19H5V5h14m0-2H5a2 2 0 0 0-2 2v14a2 2 0 0 0 2 2h14a2 2 0 0 0 2-2V5a2 2 0 0 0-2-2m-9 5v8l5-4z" />
    </symbol>
    <symbol id="creation" viewBox="0 0 24 24">
      <path fill="currentColor" d="m19 1l-1.26 2.75L15 5l2.74 1.26L19 9l1.25-2.74L23 5l-2.75-1.25M9 4L6.5 9.5L1 12l5.5 2.5L9 20l2.5-5.5L17 12l-5.5-2.5M19 15l-1.26 2.74L15 19l2.74 1.25L19 23l1.25-2.75L23 19l-2.75-1.26" />
    </symbol>
    <symbol id="robot" viewBox="0 0 24 24">
      <path fill="currentColor" d="M17.5 15.5c0 1.11-.89 2-2 2s-2-.89-2-2s.9-2 2-2s2 .9 2 2m-9-2c-1.1 0-2 .9-2 2s.9 2 2 2s2-.89 2-2s-.89-2-2-2M23 15v3c0 .55-.45 1-1 1h-1v1c0 1.11-.89 2-2 2H5a2 2 0 0 1-2-2v-1H2c-.55 0-1-.45-1-1v-3c0-.55.45-1 1-1h1c0-3.87 3.13-7 7-7h1V5.73c-.6-.34-1-.99-1-1.73c0-1.1.9-2 2-2s2 .9 2 2c0 .74-.4 1.39-1 1.73V7h1c3.87 0 7 3.13 7 7h1c.55 0 1 .45 1 1m-2 1h-2v-2c0-2.76-2.24-5-5-5h-4c-2.76 0-5 2.24-5 5v2H3v1h2v3h14v-3h2z" />
    </symbol>
  </defs>
  <rect x="0.5" y="0.5" width="859" height="449" rx="8" fill="#0c1017" stroke="#1f2937" />
  <g fill="none" stroke-width="1.8">
    <g stroke="#83b4ff">
      <path d="M108 224C130 224 130 80 152 80" />
      <path d="M352 80H414" />
      <path d="M572 80C606 80 606 48 640 48" />
      <path d="M572 80C606 80 606 112 640 112" />
    </g>
    <g stroke="#75d5b8">
      <path d="M108 224C130 224 130 208 152 208" />
      <path d="M352 208C370 208 370 176 388 176" />
      <path d="M352 208C380 208 380 240 408 240" />
      <path d="M598 176H640" />
      <path d="M578 240H640" />
    </g>
    <g stroke="#c89cf2">
      <path d="M108 224C151 224 151 320 194 320" />
      <path d="M292 320H384" />
      <path d="M602 320H640" />
    </g>
    <g stroke="#efb478">
      <path d="M108 224C130 224 130 400 152 400" />
      <path d="M352 400H470" />
      <path d="M516 400H640" />
    </g>
  </g>
  <g font-family="Arial, Helvetica, sans-serif" font-size="18" font-weight="600">
    <rect x="16" y="201" width="92" height="46" rx="6" fill="#0c1017" stroke="#465366" />
    <text x="62" y="230" font-size="17" text-anchor="middle" fill="#f9fafb">Research</text>
    <g fill="#0c1017">
      <rect x="152" y="64" width="200" height="32" rx="6" />
      <rect x="152" y="182" width="200" height="52" rx="6" />
      <rect x="194" y="304" width="98" height="32" rx="6" />
      <rect x="152" y="384" width="200" height="32" rx="6" />
      <rect x="414" y="64" width="158" height="32" rx="6" />
      <rect x="388" y="150" width="210" height="52" rx="6" />
      <rect x="408" y="224" width="170" height="32" rx="6" />
      <rect x="384" y="294" width="218" height="52" rx="6" />
      <rect x="470" y="384" width="46" height="32" rx="6" />
    </g>
    <g color="#93c5fd" fill="#93c5fd">
      <use href="#database" x="158" y="69" width="22" height="22" />
      <text x="188" y="86">Data-Centric AI</text>
    </g>
    <g color="#99f6e4" fill="#99f6e4">
      <use href="#video" x="158" y="197" width="22" height="22" />
      <text x="265" y="202" text-anchor="middle">Video</text>
      <text x="265" y="224" text-anchor="middle">Understanding</text>
    </g>
    <g color="#d8b4fe" fill="#d8b4fe">
      <use href="#creation" x="200" y="309" width="22" height="22" />
      <text x="230" y="326">AIGC</text>
    </g>
    <g color="#fdba74" fill="#fdba74">
      <use href="#robot" x="158" y="389" width="22" height="22" />
      <text x="188" y="406">Embodied AI</text>
    </g>
    <g fill="#e5e7eb" font-weight="500" text-anchor="middle">
      <text x="493" y="86">Data Selection</text>
      <text x="493" y="170">Video Anomaly</text>
      <text x="493" y="192">Detection</text>
      <text x="493" y="246">Streaming Video</text>
      <text x="493" y="314">Trustworthy</text>
      <text x="493" y="336">Generative AI</text>
      <text x="493" y="406">VLA</text>
    </g>
    <g text-anchor="middle">
      <rect x="640" y="20" width="200" height="56" rx="8" fill="#1e293b" stroke="#3b82f6" stroke-opacity="0.22" />
      <text x="740" y="43" fill="#93c5fd">VisNec</text>
      <rect x="640" y="90" width="200" height="44" rx="8" fill="#1e293b" stroke="#3b82f6" stroke-opacity="0.22" />
      <text x="740" y="118" fill="#93c5fd">OnceSelect</text>
      <rect x="640" y="148" width="200" height="56" rx="8" fill="#112b27" stroke="#34d399" stroke-opacity="0.2" />
      <text x="740" y="171" fill="#99f6e4">Pistachio</text>
      <rect x="640" y="218" width="200" height="44" rx="8" fill="#112b27" stroke="#34d399" stroke-opacity="0.2" />
      <text x="740" y="246" fill="#99f6e4">ObjectStream</text>
      <rect x="640" y="292" width="200" height="56" rx="8" fill="#2b1b3b" stroke="#a855f7" stroke-opacity="0.22" />
      <text x="740" y="315" fill="#d8b4fe">AutoDebias</text>
      <rect x="640" y="372" width="200" height="56" rx="8" fill="#322216" stroke="#fb923c" stroke-opacity="0.22" />
      <text x="740" y="395" fill="#fdba74">Evo-Depth</text>
      <g fill="#aab2c0" font-size="15" font-weight="500">
        <text x="740" y="65">(ECCV'26)</text>
        <text x="740" y="193">(ECCV'26)</text>
        <text x="740" y="337">(CVPR'26 Highlight)</text>
        <text x="740" y="417">(NeurIPS'26)</text>
      </g>
    </g>
  </g>
</svg>
